<svg id="Layer_1" data-name="Layer 1" xmlns="http://www.w3.org/2000/svg" xmlns:xlink="http://www.w3.org/1999/xlink" viewBox="0 0 203 239"><defs><style>.cls-1,.cls-2{fill:none;}.cls-1{clip-rule:evenodd;}.cls-3{clip-path:url(#clip-path);}.cls-4{isolation:isolate;}.cls-5{clip-path:url(#clip-path-2);}.cls-6{clip-path:url(#clip-path-3);}.cls-7{fill:#6ba981;}.cls-8{clip-path:url(#clip-path-4);}.cls-9{fill:#7aba93;}.cls-10{clip-path:url(#clip-path-6);}.cls-11{clip-path:url(#clip-path-7);}.cls-12{clip-path:url(#clip-path-8);}.cls-13{fill:#a3d6b4;}.cls-14{clip-path:url(#clip-path-9);}.cls-15{fill:#bbe0c5;}</style><clipPath id="clip-path"><path class="cls-1" d="M62,25.11S217.51,77.27,167.7,165.85C72.21,187.6,62.33,24.88,62,25.11Z"/></clipPath><clipPath id="clip-path-2"><rect class="cls-2" x="-4" y="-39" width="212" height="236"/></clipPath><clipPath id="clip-path-3"><rect class="cls-2" x="62" y="24" width="141" height="164"/></clipPath><clipPath id="clip-path-4"><polygon class="cls-2" points="158.96 154.21 158.92 154.44 53.92 134.44 54.08 133.56 158.37 153.43 142.21 132.02 142 132 141.92 132.44 43.92 115.44 44.08 114.56 141.61 131.48 141.64 131.27 124.31 108.32 44.92 93.44 45.08 92.56 123.52 107.27 107.76 86.4 29.91 70.43 30.09 69.57 106.95 85.33 87.96 60.19 87.91 60.43 12.91 45.43 13.09 44.57 87.39 59.43 71.99 39.04 71.91 39.43 -3.09 24.43 -2.91 23.57 71.56 38.46 58.3 20.9 59.1 20.3 71.65 36.93 78.56 -38.04 79.44 -37.96 72.45 37.98 87.72 58.21 94.56 -16.04 95.44 -15.96 88.51 59.26 107.59 84.52 113.56 5.97 114.44 6.03 108.44 85.03 107.95 85 124.64 107.1 132.56 26.96 133.44 27.04 125.44 108.04 125.35 108.03 141.8 129.82 152.56 32.95 153.44 33.05 142.57 130.85 158.72 152.24 168.56 47.96 169.44 48.04 159.51 153.28 170.7 168.1 169.9 168.7 158.96 154.21"/></clipPath><clipPath id="clip-path-6"><path class="cls-1" d="M78,105.23c-.18,1.56,0,3.46-.21,5-.34,2.21-1.93,2.9-4.07,2.53-6.12-1-11.6-3.92-17.45-5.81,0,0-16-5.19-19.07,4.09a11.93,11.93,0,0,0-.56,2.83v0a9.27,9.27,0,0,0,2.32,7,16.62,16.62,0,0,0,6.5,4c4.15,1.56,25,8.09,19,15.69a8.83,8.83,0,0,1-1.18,1.2c-1.48,1.27-3.39,1.91-5.09,2.87a11.45,11.45,0,0,0-4.41,4.21,7.76,7.76,0,0,0-.79,6c2.58,8.54,16.43,8.51,23.33,8,5.1-.36,10-1.83,15.17-1.61a6.33,6.33,0,0,1,2.48.47c2.86,1.35.93,4.07-.82,5.49-3.93,3.17-10.25,8.54-6.5,14.14.85,1.27,2.89,2,4.26,2.43,3.72,1.09,7.24.25,10.89-.74a59.78,59.78,0,0,0,13.48-5.32,35.5,35.5,0,0,0,6.14-4.24c1-.88,2.78-2.72,4.27-2.76,2.49-.07-2.65,5.55-3,6.34a3.25,3.25,0,0,0,2.21,4.34c2,.62,3.93.22,5.9-.18a13.57,13.57,0,0,1,5-.4,1.87,1.87,0,0,1,1.34.66,2.27,2.27,0,0,1,.26.94c1.44,9,13.85,3.94,19.12,1.83,3.63-1.46,7.81-3.85,8.76-7.95a25,25,0,0,0,.57-3.75l0-.35a42.67,42.67,0,0,0-1.26-12.08c-1-4.16-1.92-12.64-7.66-12.88-2.94-.13-3.57,3.24-5.72,3.27-4.15,0-1.18-7.85-1.22-9.75a8,8,0,0,0-6-7.76c-3-.87-6.1.21-7.17,3.21-.35,1-.55,2-1,3a2.48,2.48,0,0,1-1.84,1.62c-2.39.22-1.8-4.22-1.92-5.55a74.94,74.94,0,0,0-1-7.45c-1-5.32-2.73-11.22-6.73-15.14a12,12,0,0,0-5-3,5.55,5.55,0,0,0-4.13.91,9.44,9.44,0,0,0-3.21,3.76c-.92,1.81-.85,4.33-2.56,5.68a2.4,2.4,0,0,1-2.28.44,3.12,3.12,0,0,1-1.23-1c-1.38-1.8-2.22-4-3.44-6A43.52,43.52,0,0,0,98,107.56a26.34,26.34,0,0,0-12-7.85,6.68,6.68,0,0,0-1.54-.28c-3.41-.24-6,2.19-6.42,5.8"/></clipPath><clipPath id="clip-path-7"><rect class="cls-2" x="-9" y="57" width="185" height="138"/></clipPath><clipPath id="clip-path-8"><rect class="cls-2" x="36" y="99" width="131" height="93"/></clipPath><clipPath id="clip-path-9"><path class="cls-2" d="M154.81,171.12q-8.55-5.72-17.28-11.06l.1.4L59.21,181.58l-.23-.86,78-21v0q-9.48-5.79-19.18-11.17l0,.2-64.4,15.69-.21-.86,63.68-15.51q-3-1.67-6.06-3.29-7.6-4.08-16.43-8.46l0,.16L31.84,151.31l-.2-.86L93.39,135.8q-9.75-4.85-21-10.07l.23.6-.83.31-.21-.56-60,14.83-.21-.86,60-14.8,0,0q-9.15-4.26-19.26-8.77l0,.08L-8.32,131.42l-.22-.86L50.82,115.9q-7.66-3.42-15.88-7l-.46-.2.39-.92.46.2q8.12,3.51,15.68,6.88l-21.17-57,.83-.3,21.47,57.76q9.77,4.36,18.64,8.47L50.14,68.33,51,68l21,56.37q11.46,5.34,21.42,10.27L71.4,76.07l.83-.31L94.5,135.23q9,4.5,16.79,8.64c1.77.95,3.53,1.9,5.29,2.87L94.41,85.2l.83-.3,22.46,62.35-.12,0q9.54,5.27,18.86,10.94L111,83l.84-.29L137.62,159q8.83,5.4,17.5,11.18l-28.63-80,.83-.3,29,81.15q5.71,3.84,11.35,7.83l.4.29-.57.82-.41-.29q-5.62-4-11.34-7.82L72.31,193.12l-.22-.86Z"/></clipPath></defs><title>Untitled-1</title><g class="cls-3"><g class="cls-4"><g class="cls-5"><g class="cls-6"><rect class="cls-7" x="70" y="2" width="91" height="186" transform="translate(-33.91 88.64) rotate(-37)"/></g><g class="cls-8"><g class="cls-6"><rect class="cls-9" x="-8.09" y="-43.04" width="183.79" height="216.74"/></g></g></g></g></g><g class="cls-10"><g class="cls-4"><g class="cls-11"><g class="cls-12"><rect class="cls-13" x="54.31" y="71.21" width="94" height="143" transform="translate(-48.12 233.81) rotate(-86)"/></g><g class="cls-14"><g class="cls-12"><rect class="cls-15" x="-5.58" y="43.08" width="150.53" height="178.72" transform="translate(-49.44 41.86) rotate(-25)"/></g></g></g></g></g></svg>